<svg width="40" height="40" viewBox="0 0 40 40" fill="none" xmlns="http://www.w3.org/2000/svg">
<rect width="40" height="40" rx="3" fill="black"/>
<path d="M15.856 7.168L16.8 6.688C17.648 7.808 18.704 9.312 19.168 10.224L18.16 10.8C17.712 9.872 16.72 8.304 15.856 7.168ZM10.512 4.896H19.152V5.984H10.512V4.896ZM15.168 10.384H16.336V15.44C16.336 15.856 16.4 15.92 16.736 15.92C16.896 15.92 17.648 15.92 17.84 15.92C18.192 15.92 18.24 15.616 18.288 13.696C18.528 13.904 19.008 14.096 19.328 14.192C19.232 16.368 18.96 16.96 17.952 16.96C17.728 16.96 16.768 16.96 16.56 16.96C15.44 16.96 15.168 16.608 15.168 15.44V10.384ZM12.16 10.4H13.344C13.216 13.984 12.704 16.064 9.808 17.232C9.664 16.944 9.344 16.48 9.072 16.272C11.68 15.28 12.064 13.568 12.16 10.4ZM10.592 10.448L10.56 9.552L11.232 9.152L17.68 8.608C17.68 8.912 17.744 9.36 17.792 9.584C11.712 10.176 11.024 10.256 10.592 10.448ZM13.504 2.832L14.624 2.528C14.976 3.168 15.392 4.064 15.584 4.576L14.4 4.944C14.224 4.4 13.84 3.488 13.504 2.832ZM10.592 10.448C10.528 10.144 10.304 9.536 10.176 9.264C10.48 9.2 10.896 9.088 11.2 8.784C11.648 8.352 13.248 6.192 13.824 5.344H15.248C14.432 6.512 12.848 8.688 12 9.648C12 9.648 10.592 10.112 10.592 10.448ZM5.056 13.088C4.992 12.848 4.8 12.256 4.656 11.936C4.992 11.872 5.376 11.472 5.872 10.88C6.4 10.304 8.112 8.064 9.216 5.904L10.288 6.544C9.008 8.72 7.44 10.864 5.904 12.416V12.464C5.904 12.464 5.056 12.848 5.056 13.088ZM5.056 13.088L4.976 12.064L5.568 11.648L9.872 10.8C9.856 11.12 9.856 11.6 9.904 11.84C5.936 12.72 5.392 12.88 5.056 13.088ZM4.944 9.248C4.88 8.976 4.672 8.352 4.512 8C4.816 7.936 5.12 7.568 5.472 7.024C5.856 6.496 7.04 4.432 7.728 2.512L8.96 3.072C8.08 5.04 6.88 7.104 5.712 8.544V8.576C5.712 8.576 4.944 8.992 4.944 9.248ZM4.944 9.248L4.928 8.32L5.504 7.936L8.512 7.632C8.448 7.936 8.4 8.4 8.416 8.64C5.68 9.008 5.216 9.104 4.944 9.248ZM4.656 15.152C5.968 14.816 7.92 14.224 9.856 13.648L10.048 14.688C8.256 15.28 6.384 15.888 4.944 16.352L4.656 15.152ZM20.704 9.104H35.344V10.416H20.704V9.104ZM4.8 25.48H9.648V26.616H4.8V25.48ZM6.752 21.752H7.888V32.472H6.752V21.752ZM4.56 32.936C5.84 32.536 7.76 31.816 9.616 31.128L9.84 32.216C8.16 32.904 6.352 33.624 4.96 34.152L4.56 32.936ZM10 22.328H16.688V23.464H10V22.328ZM17.84 26.728H19.04C19.04 26.728 19.024 27.144 18.992 27.32C18.672 32.952 18.336 34.92 17.776 35.592C17.456 35.976 17.152 36.104 16.688 36.136C16.288 36.184 15.648 36.184 14.96 36.152C14.944 35.816 14.816 35.32 14.64 35C15.296 35.064 15.904 35.08 16.176 35.08C16.432 35.08 16.576 35.048 16.736 34.84C17.184 34.36 17.536 32.344 17.84 26.984V26.728ZM10.56 28.056C10.48 27.8 10.224 27.224 10.048 26.936C10.464 26.872 11.056 26.536 11.664 26.136C12.32 25.736 14.544 24.184 16.096 22.536V22.456L16.672 22.216L17.584 22.888C15.424 24.824 13.328 26.392 11.408 27.448V27.48C11.408 27.48 10.56 27.816 10.56 28.056ZM10.56 28.056V27.064L11.248 26.728H18.256V27.864H11.952C11.216 27.864 10.704 27.928 10.56 28.056ZM15.728 27.368L16.784 27.576C15.696 31.496 13.744 34.408 10.976 36.264C10.784 36.072 10.336 35.736 10.064 35.576C12.896 33.88 14.752 31.032 15.728 27.368ZM13.264 27.384L14.32 27.608C13.616 29.8 12.272 31.592 10.672 32.744C10.48 32.568 10.032 32.216 9.776 32.056C11.376 31.032 12.64 29.368 13.264 27.384ZM30.848 22.168C31.904 24.104 33.904 26.232 35.632 27.272C35.36 27.496 34.976 27.928 34.768 28.216C33.008 26.984 30.992 24.712 29.84 22.552L30.848 22.168ZM29.952 21.544L31.232 21.768C30.208 24.008 28.48 26.504 25.856 28.36C25.664 28.072 25.296 27.64 25.024 27.464C27.504 25.8 29.152 23.448 29.952 21.544ZM27.344 27.464H28.544V34.024C28.544 34.648 28.704 34.776 29.648 34.776C30.08 34.776 32.256 34.776 32.816 34.776C33.616 34.776 33.76 34.44 33.84 32.552C34.128 32.76 34.624 32.952 34.944 33.016C34.784 35.256 34.432 35.864 32.88 35.864C32.512 35.864 29.92 35.864 29.568 35.864C27.824 35.864 27.344 35.48 27.344 34.024V27.464ZM32.896 28.184L33.68 29.192C32.112 30.2 29.904 31.336 28.272 32.024L27.632 31.128C29.216 30.44 31.504 29.176 32.896 28.184ZM21.712 22.712L22.464 21.912C23.44 22.68 24.688 23.768 25.296 24.472L24.48 25.384C23.904 24.664 22.672 23.512 21.712 22.712ZM23.024 35.96L22.8 34.824L23.104 34.296L25.888 32.136C26 32.472 26.192 32.92 26.32 33.144C23.68 35.272 23.264 35.624 23.024 35.96ZM20.64 26.6H23.776V27.752H20.64V26.6ZM23.024 35.976C22.896 35.72 22.56 35.288 22.368 35.096C22.64 34.872 23.136 34.328 23.136 33.544V26.6H24.288V34.424C24.288 34.424 23.024 35.496 23.024 35.976Z" fill="#FFFFFF"/>
</svg>
