<svg width="81" height="32" viewBox="0 0 81 32" fill="none" xmlns="http://www.w3.org/2000/svg">
<rect width="81" height="32" rx="3" fill="black"/>
<path d="M19.856 13.168L20.8 12.688C21.648 13.808 22.704 15.312 23.168 16.224L22.16 16.8C21.712 15.872 20.72 14.304 19.856 13.168ZM14.512 10.896H23.152V11.984H14.512V10.896ZM19.168 16.384H20.336V21.44C20.336 21.856 20.4 21.92 20.736 21.92C20.896 21.92 21.648 21.92 21.84 21.92C22.192 21.92 22.24 21.616 22.288 19.696C22.528 19.904 23.008 20.096 23.328 20.192C23.232 22.368 22.96 22.96 21.952 22.96C21.728 22.96 20.768 22.96 20.56 22.96C19.44 22.96 19.168 22.608 19.168 21.44V16.384ZM16.16 16.4H17.344C17.216 19.984 16.704 22.064 13.808 23.232C13.664 22.944 13.344 22.48 13.072 22.272C15.68 21.28 16.064 19.568 16.16 16.4ZM14.592 16.448L14.56 15.552L15.232 15.152L21.68 14.608C21.68 14.912 21.744 15.36 21.792 15.584C15.712 16.176 15.024 16.256 14.592 16.448ZM17.504 8.832L18.624 8.528C18.976 9.168 19.392 10.064 19.584 10.576L18.4 10.944C18.224 10.4 17.84 9.488 17.504 8.832ZM14.592 16.448C14.528 16.144 14.304 15.536 14.176 15.264C14.48 15.2 14.896 15.088 15.2 14.784C15.648 14.352 17.248 12.192 17.824 11.344H19.248C18.432 12.512 16.848 14.688 16 15.648C16 15.648 14.592 16.112 14.592 16.448ZM9.056 19.088C8.992 18.848 8.8 18.256 8.656 17.936C8.992 17.872 9.376 17.472 9.872 16.88C10.4 16.304 12.112 14.064 13.216 11.904L14.288 12.544C13.008 14.72 11.44 16.864 9.904 18.416V18.464C9.904 18.464 9.056 18.848 9.056 19.088ZM9.056 19.088L8.976 18.064L9.568 17.648L13.872 16.8C13.856 17.12 13.856 17.6 13.904 17.84C9.936 18.72 9.392 18.88 9.056 19.088ZM8.944 15.248C8.88 14.976 8.672 14.352 8.512 14C8.816 13.936 9.12 13.568 9.472 13.024C9.856 12.496 11.04 10.432 11.728 8.512L12.96 9.072C12.08 11.04 10.88 13.104 9.712 14.544V14.576C9.712 14.576 8.944 14.992 8.944 15.248ZM8.944 15.248L8.928 14.32L9.504 13.936L12.512 13.632C12.448 13.936 12.4 14.4 12.416 14.64C9.68 15.008 9.216 15.104 8.944 15.248ZM8.656 21.152C9.968 20.816 11.92 20.224 13.856 19.648L14.048 20.688C12.256 21.28 10.384 21.888 8.944 22.352L8.656 21.152ZM24.704 15.104H39.344V16.416H24.704V15.104ZM40.8 12.48H45.648V13.616H40.8V12.48ZM42.752 8.752H43.888V19.472H42.752V8.752ZM40.56 19.936C41.84 19.536 43.76 18.816 45.616 18.128L45.84 19.216C44.16 19.904 42.352 20.624 40.96 21.152L40.56 19.936ZM46 9.328H52.688V10.464H46V9.328ZM53.84 13.728H55.04C55.04 13.728 55.024 14.144 54.992 14.32C54.672 19.952 54.336 21.92 53.776 22.592C53.456 22.976 53.152 23.104 52.688 23.136C52.288 23.184 51.648 23.184 50.96 23.152C50.944 22.816 50.816 22.32 50.64 22C51.296 22.064 51.904 22.08 52.176 22.08C52.432 22.08 52.576 22.048 52.736 21.84C53.184 21.36 53.536 19.344 53.84 13.984V13.728ZM46.56 15.056C46.48 14.8 46.224 14.224 46.048 13.936C46.464 13.872 47.056 13.536 47.664 13.136C48.32 12.736 50.544 11.184 52.096 9.536V9.456L52.672 9.216L53.584 9.888C51.424 11.824 49.328 13.392 47.408 14.448V14.48C47.408 14.48 46.56 14.816 46.56 15.056ZM46.56 15.056V14.064L47.248 13.728H54.256V14.864H47.952C47.216 14.864 46.704 14.928 46.56 15.056ZM51.728 14.368L52.784 14.576C51.696 18.496 49.744 21.408 46.976 23.264C46.784 23.072 46.336 22.736 46.064 22.576C48.896 20.88 50.752 18.032 51.728 14.368ZM49.264 14.384L50.32 14.608C49.616 16.8 48.272 18.592 46.672 19.744C46.48 19.568 46.032 19.216 45.776 19.056C47.376 18.032 48.64 16.368 49.264 14.384ZM66.848 9.168C67.904 11.104 69.904 13.232 71.632 14.272C71.36 14.496 70.976 14.928 70.768 15.216C69.008 13.984 66.992 11.712 65.84 9.552L66.848 9.168ZM65.952 8.544L67.232 8.768C66.208 11.008 64.48 13.504 61.856 15.36C61.664 15.072 61.296 14.64 61.024 14.464C63.504 12.8 65.152 10.448 65.952 8.544ZM63.344 14.464H64.544V21.024C64.544 21.648 64.704 21.776 65.648 21.776C66.08 21.776 68.256 21.776 68.816 21.776C69.616 21.776 69.76 21.44 69.84 19.552C70.128 19.76 70.624 19.952 70.944 20.016C70.784 22.256 70.432 22.864 68.88 22.864C68.512 22.864 65.92 22.864 65.568 22.864C63.824 22.864 63.344 22.48 63.344 21.024V14.464ZM68.896 15.184L69.68 16.192C68.112 17.2 65.904 18.336 64.272 19.024L63.632 18.128C65.216 17.44 67.504 16.176 68.896 15.184ZM57.712 9.712L58.464 8.912C59.44 9.68 60.688 10.768 61.296 11.472L60.48 12.384C59.904 11.664 58.672 10.512 57.712 9.712ZM59.024 22.96L58.8 21.824L59.104 21.296L61.888 19.136C62 19.472 62.192 19.92 62.32 20.144C59.68 22.272 59.264 22.624 59.024 22.96ZM56.64 13.6H59.776V14.752H56.64V13.6ZM59.024 22.976C58.896 22.72 58.56 22.288 58.368 22.096C58.64 21.872 59.136 21.328 59.136 20.544V13.6H60.288V21.424C60.288 21.424 59.024 22.496 59.024 22.976Z" fill="#C5C1C1"/>
</svg>
