<svg width="171" height="32" viewBox="0 0 171 32" fill="none" xmlns="http://www.w3.org/2000/svg">
<rect width="171" height="32" rx="3" fill="black"/>
<path d="M18.25 10.3636H19.6591L18.3864 18.0682C18.2538 18.8636 17.9489 19.5739 17.4716 20.1989C16.9943 20.8201 16.3864 21.3106 15.6477 21.6705C14.9091 22.0265 14.0833 22.2045 13.1705 22.2045C12.2576 22.2045 11.4924 22.0265 10.875 21.6705C10.2576 21.3106 9.81439 20.8201 9.54545 20.1989C9.27652 19.5739 9.20833 18.8636 9.34091 18.0682L10.6136 10.3636H12.0227L10.7614 17.9545C10.6705 18.5227 10.714 19.0284 10.892 19.4716C11.0701 19.911 11.3693 20.2576 11.7898 20.5114C12.214 20.7614 12.75 20.8864 13.3977 20.8864C14.0455 20.8864 14.6231 20.7614 15.1307 20.5114C15.6383 20.2576 16.0511 19.911 16.3693 19.4716C16.6913 19.0284 16.8977 18.5227 16.9886 17.9545L18.25 10.3636ZM22.5639 16.75L21.7003 22H20.3594L21.8139 13.2727H23.1094L22.8821 14.6364H22.9957C23.2685 14.1932 23.6378 13.8371 24.1037 13.5682C24.5696 13.2955 25.1321 13.1591 25.7912 13.1591C26.3745 13.1591 26.867 13.2803 27.2685 13.5227C27.6738 13.7614 27.9598 14.125 28.1264 14.6136C28.2969 15.0985 28.3215 15.7121 28.2003 16.4545L27.2685 22H25.9276L26.8366 16.5455C26.9503 15.8636 26.8613 15.3295 26.5696 14.9432C26.2817 14.5568 25.8253 14.3636 25.2003 14.3636C24.7685 14.3636 24.3688 14.4564 24.0014 14.642C23.6378 14.8277 23.3291 15.0985 23.0753 15.4545C22.8253 15.8106 22.6548 16.2424 22.5639 16.75ZM29.7188 22L31.1733 13.2727H32.5142L31.0597 22H29.7188ZM32.2528 11.7955C31.9915 11.7955 31.7661 11.7064 31.5767 11.5284C31.3911 11.3504 31.2983 11.1364 31.2983 10.8864C31.2983 10.6364 31.3911 10.4223 31.5767 10.2443C31.7661 10.0663 31.9915 9.97727 32.2528 9.97727C32.5142 9.97727 32.7377 10.0663 32.9233 10.2443C33.1127 10.4223 33.2074 10.6364 33.2074 10.8864C33.2074 11.1364 33.1127 11.3504 32.9233 11.5284C32.7377 11.7064 32.5142 11.7955 32.2528 11.7955ZM38.8565 13.2727L38.6747 14.4091H33.9702L34.152 13.2727H38.8565ZM34.1065 22L35.7656 12.0682C35.8414 11.5682 36.0232 11.1515 36.3111 10.8182C36.6027 10.4848 36.9493 10.2348 37.3509 10.0682C37.7562 9.90151 38.1671 9.81818 38.5838 9.81818C38.9134 9.81818 39.1766 9.8447 39.3736 9.89773C39.5743 9.95076 39.7202 10 39.8111 10.0455L39.2429 11.2045C39.1747 11.1818 39.0838 11.1534 38.9702 11.1193C38.8603 11.0852 38.7088 11.0682 38.5156 11.0682C38.0724 11.0682 37.7353 11.1799 37.5043 11.4034C37.2732 11.6269 37.1179 11.9545 37.0384 12.3864L35.4474 22H34.1065ZM39.2812 22L40.7358 13.2727H42.0767L40.6222 22H39.2812ZM41.8153 11.7955C41.554 11.7955 41.3286 11.7064 41.1392 11.5284C40.9536 11.3504 40.8608 11.1364 40.8608 10.8864C40.8608 10.6364 40.9536 10.4223 41.1392 10.2443C41.3286 10.0663 41.554 9.97727 41.8153 9.97727C42.0767 9.97727 42.3002 10.0663 42.4858 10.2443C42.6752 10.4223 42.7699 10.6364 42.7699 10.8864C42.7699 11.1364 42.6752 11.3504 42.4858 11.5284C42.3002 11.7064 42.0767 11.7955 41.8153 11.7955ZM46.7145 22.1818C45.8774 22.1818 45.1861 21.9962 44.6406 21.625C44.0952 21.25 43.7145 20.7273 43.4986 20.0568C43.2827 19.3826 43.2486 18.5985 43.3963 17.7045C43.544 16.8106 43.8376 16.0227 44.277 15.3409C44.7164 14.6553 45.2637 14.1212 45.919 13.7386C46.5743 13.3523 47.294 13.1591 48.0781 13.1591C48.5327 13.1591 48.9702 13.2348 49.3906 13.3864C49.8111 13.5379 50.1747 13.7841 50.4815 14.125C50.7884 14.4621 51.0024 14.9091 51.1236 15.4659C51.2448 16.0227 51.2372 16.7083 51.1009 17.5227L51.0099 18.0909H44.2827L44.4645 16.9318H49.8281C49.9152 16.4394 49.8925 16 49.7599 15.6136C49.6312 15.2273 49.4058 14.9223 49.0838 14.6989C48.7656 14.4754 48.3622 14.3636 47.8736 14.3636C47.3698 14.3636 46.9001 14.5 46.4645 14.7727C46.0289 15.0417 45.6652 15.3826 45.3736 15.7955C45.0819 16.2045 44.9001 16.6212 44.8281 17.0455L44.669 18.0455C44.5554 18.7689 44.5724 19.3447 44.7202 19.7727C44.8717 20.2008 45.1349 20.5095 45.5099 20.6989C45.8849 20.8845 46.3546 20.9773 46.919 20.9773C47.2789 20.9773 47.6103 20.928 47.9134 20.8295C48.2164 20.7273 48.4872 20.5758 48.7259 20.375C48.9645 20.1705 49.1652 19.9167 49.3281 19.6136L50.5554 19.9773C50.3471 20.4167 50.0535 20.803 49.6747 21.1364C49.2997 21.4659 48.8603 21.7235 48.3565 21.9091C47.8565 22.0909 47.3092 22.1818 46.7145 22.1818ZM55.706 22.1818C54.9749 22.1818 54.3613 21.9981 53.8651 21.6307C53.3688 21.2595 53.0185 20.7367 52.8139 20.0625C52.6132 19.3845 52.5885 18.5833 52.7401 17.6591C52.8954 16.7424 53.1851 15.947 53.6094 15.2727C54.0374 14.5985 54.562 14.0777 55.1832 13.7102C55.8045 13.3428 56.4825 13.1591 57.2173 13.1591C57.7855 13.1591 58.2192 13.2538 58.5185 13.4432C58.8215 13.6288 59.0412 13.8409 59.1776 14.0795C59.3139 14.3144 59.4181 14.5076 59.4901 14.6591H59.6037L60.3196 10.3636H61.6605L59.7287 22H58.4332L58.6605 20.6591H58.5014C58.3764 20.8182 58.2022 21.0189 57.9787 21.2614C57.7552 21.5 57.4598 21.714 57.0923 21.9034C56.7287 22.089 56.2666 22.1818 55.706 22.1818ZM56.0355 20.9773C56.5734 20.9773 57.0545 20.8371 57.4787 20.5568C57.9067 20.2727 58.2628 19.8807 58.5469 19.3807C58.831 18.8769 59.0279 18.2955 59.1378 17.6364C59.2476 16.9848 59.2438 16.4148 59.1264 15.9261C59.009 15.4337 58.7836 15.0511 58.4503 14.7784C58.117 14.5019 57.6757 14.3636 57.1264 14.3636C56.562 14.3636 56.0715 14.5095 55.6548 14.8011C55.2382 15.089 54.8991 15.4811 54.6378 15.9773C54.3764 16.4697 54.1946 17.0227 54.0923 17.6364C53.9901 18.2576 53.9882 18.822 54.0866 19.3295C54.1851 19.8333 54.3935 20.2348 54.7116 20.5341C55.0336 20.8295 55.4749 20.9773 56.0355 20.9773ZM67.0412 22L68.973 10.3636H75.9503L75.7457 11.6136H70.1776L69.5185 15.5455H74.5639L74.3594 16.7955H69.3139L68.4503 22H67.0412ZM76.25 22L77.7045 13.2727H79.0455L77.5909 22H76.25ZM78.7841 11.7955C78.5227 11.7955 78.2973 11.7064 78.108 11.5284C77.9223 11.3504 77.8295 11.1364 77.8295 10.8864C77.8295 10.6364 77.9223 10.4223 78.108 10.2443C78.2973 10.0663 78.5227 9.97727 78.7841 9.97727C79.0455 9.97727 79.2689 10.0663 79.4545 10.2443C79.6439 10.4223 79.7386 10.6364 79.7386 10.8864C79.7386 11.1364 79.6439 11.3504 79.4545 11.5284C79.2689 11.7064 79.0455 11.7955 78.7841 11.7955ZM83.6832 22.1818C82.8461 22.1818 82.1548 21.9962 81.6094 21.625C81.0639 21.25 80.6832 20.7273 80.4673 20.0568C80.2514 19.3826 80.2173 18.5985 80.3651 17.7045C80.5128 16.8106 80.8063 16.0227 81.2457 15.3409C81.6851 14.6553 82.2325 14.1212 82.8878 13.7386C83.5431 13.3523 84.2628 13.1591 85.0469 13.1591C85.5014 13.1591 85.9389 13.2348 86.3594 13.3864C86.7798 13.5379 87.1435 13.7841 87.4503 14.125C87.7571 14.4621 87.9711 14.9091 88.0923 15.4659C88.2135 16.0227 88.206 16.7083 88.0696 17.5227L87.9787 18.0909H81.2514L81.4332 16.9318H86.7969C86.884 16.4394 86.8613 16 86.7287 15.6136C86.5999 15.2273 86.3745 14.9223 86.0526 14.6989C85.7344 14.4754 85.331 14.3636 84.8423 14.3636C84.3385 14.3636 83.8688 14.5 83.4332 14.7727C82.9976 15.0417 82.634 15.3826 82.3423 15.7955C82.0507 16.2045 81.8688 16.6212 81.7969 17.0455L81.6378 18.0455C81.5241 18.7689 81.5412 19.3447 81.6889 19.7727C81.8404 20.2008 82.1037 20.5095 82.4787 20.6989C82.8537 20.8845 83.3234 20.9773 83.8878 20.9773C84.2476 20.9773 84.5791 20.928 84.8821 20.8295C85.1851 20.7273 85.456 20.5758 85.6946 20.375C85.9332 20.1705 86.134 19.9167 86.2969 19.6136L87.5241 19.9773C87.3158 20.4167 87.0223 20.803 86.6435 21.1364C86.2685 21.4659 85.8291 21.7235 85.3253 21.9091C84.8253 22.0909 84.2779 22.1818 83.6832 22.1818ZM92.6634 10.3636L90.7315 22H89.3906L91.3224 10.3636H92.6634ZM96.4716 22.1818C95.7405 22.1818 95.1269 21.9981 94.6307 21.6307C94.1345 21.2595 93.7841 20.7367 93.5795 20.0625C93.3788 19.3845 93.3542 18.5833 93.5057 17.6591C93.661 16.7424 93.9508 15.947 94.375 15.2727C94.803 14.5985 95.3277 14.0777 95.9489 13.7102C96.5701 13.3428 97.2481 13.1591 97.983 13.1591C98.5511 13.1591 98.9848 13.2538 99.2841 13.4432C99.5871 13.6288 99.8068 13.8409 99.9432 14.0795C100.08 14.3144 100.184 14.5076 100.256 14.6591H100.369L101.085 10.3636H102.426L100.494 22H99.1989L99.4261 20.6591H99.267C99.142 20.8182 98.9678 21.0189 98.7443 21.2614C98.5208 21.5 98.2254 21.714 97.858 21.9034C97.4943 22.089 97.0322 22.1818 96.4716 22.1818ZM96.8011 20.9773C97.339 20.9773 97.8201 20.8371 98.2443 20.5568C98.6723 20.2727 99.0284 19.8807 99.3125 19.3807C99.5966 18.8769 99.7936 18.2955 99.9034 17.6364C100.013 16.9848 100.009 16.4148 99.892 15.9261C99.7746 15.4337 99.5492 15.0511 99.2159 14.7784C98.8826 14.5019 98.4413 14.3636 97.892 14.3636C97.3277 14.3636 96.8371 14.5095 96.4205 14.8011C96.0038 15.089 95.6648 15.4811 95.4034 15.9773C95.142 16.4697 94.9602 17.0227 94.858 17.6364C94.7557 18.2576 94.7538 18.822 94.8523 19.3295C94.9508 19.8333 95.1591 20.2348 95.4773 20.5341C95.7992 20.8295 96.2405 20.9773 96.8011 20.9773ZM108.898 11.6136L109.102 10.3636H117.83L117.625 11.6136H113.966L112.239 22H110.83L112.557 11.6136H108.898ZM120.095 16.75L119.232 22H117.891L119.822 10.3636H121.163L120.459 14.6364H120.572C120.845 14.1818 121.209 13.822 121.663 13.5568C122.122 13.2917 122.697 13.1591 123.391 13.1591C123.982 13.1591 124.48 13.2784 124.885 13.517C125.294 13.7519 125.582 14.1136 125.749 14.6023C125.919 15.0871 125.944 15.7045 125.822 16.4545L124.891 22H123.55L124.459 16.5455C124.572 15.8523 124.48 15.3163 124.18 14.9375C123.885 14.5549 123.425 14.3636 122.8 14.3636C122.36 14.3636 121.951 14.4564 121.572 14.642C121.197 14.8277 120.879 15.0985 120.618 15.4545C120.36 15.8106 120.186 16.2424 120.095 16.75ZM130.98 22.1818C130.143 22.1818 129.452 21.9962 128.906 21.625C128.361 21.25 127.98 20.7273 127.764 20.0568C127.548 19.3826 127.514 18.5985 127.662 17.7045C127.81 16.8106 128.103 16.0227 128.543 15.3409C128.982 14.6553 129.529 14.1212 130.185 13.7386C130.84 13.3523 131.56 13.1591 132.344 13.1591C132.798 13.1591 133.236 13.2348 133.656 13.3864C134.077 13.5379 134.44 13.7841 134.747 14.125C135.054 14.4621 135.268 14.9091 135.389 15.4659C135.51 16.0227 135.503 16.7083 135.366 17.5227L135.276 18.0909H128.548L128.73 16.9318H134.094C134.181 16.4394 134.158 16 134.026 15.6136C133.897 15.2273 133.671 14.9223 133.349 14.6989C133.031 14.4754 132.628 14.3636 132.139 14.3636C131.635 14.3636 131.166 14.5 130.73 14.7727C130.295 15.0417 129.931 15.3826 129.639 15.7955C129.348 16.2045 129.166 16.6212 129.094 17.0455L128.935 18.0455C128.821 18.7689 128.838 19.3447 128.986 19.7727C129.137 20.2008 129.401 20.5095 129.776 20.6989C130.151 20.8845 130.62 20.9773 131.185 20.9773C131.545 20.9773 131.876 20.928 132.179 20.8295C132.482 20.7273 132.753 20.5758 132.991 20.375C133.23 20.1705 133.431 19.9167 133.594 19.6136L134.821 19.9773C134.613 20.4167 134.319 20.803 133.94 21.1364C133.565 21.4659 133.126 21.7235 132.622 21.9091C132.122 22.0909 131.575 22.1818 130.98 22.1818ZM140.29 22.1818C139.487 22.1818 138.814 21.9905 138.273 21.608C137.731 21.2254 137.348 20.6894 137.125 20C136.905 19.3106 136.869 18.5076 137.017 17.5909C137.161 16.697 137.447 15.9186 137.875 15.2557C138.307 14.589 138.843 14.0739 139.483 13.7102C140.127 13.3428 140.835 13.1591 141.608 13.1591C142.411 13.1591 143.081 13.3523 143.619 13.7386C144.161 14.1212 144.544 14.6591 144.767 15.3523C144.991 16.0417 145.028 16.8485 144.881 17.7727C144.737 18.6591 144.447 19.4337 144.011 20.0966C143.58 20.7557 143.044 21.2689 142.403 21.6364C141.767 22 141.063 22.1818 140.29 22.1818ZM140.312 20.9773C140.926 20.9773 141.458 20.8201 141.909 20.5057C142.364 20.1913 142.731 19.7765 143.011 19.2614C143.295 18.7462 143.487 18.1894 143.585 17.5909C143.676 17.0227 143.672 16.4943 143.574 16.0057C143.475 15.5133 143.265 15.1174 142.943 14.8182C142.621 14.5152 142.169 14.3636 141.585 14.3636C140.972 14.3636 140.436 14.5227 139.977 14.8409C139.523 15.1591 139.155 15.5777 138.875 16.0966C138.595 16.6155 138.407 17.1742 138.312 17.7727C138.222 18.3409 138.223 18.8693 138.318 19.358C138.417 19.8428 138.627 20.2348 138.949 20.5341C139.275 20.8295 139.729 20.9773 140.312 20.9773ZM146.234 22L147.689 13.2727H148.984L148.757 14.5909H148.848C149.075 14.1591 149.422 13.8087 149.888 13.5398C150.354 13.2708 150.848 13.1364 151.371 13.1364C151.473 13.1364 151.596 13.1383 151.74 13.142C151.884 13.142 151.996 13.1477 152.075 13.1591L151.848 14.5227C151.803 14.5114 151.7 14.4943 151.541 14.4716C151.382 14.4451 151.212 14.4318 151.03 14.4318C150.606 14.4318 150.214 14.5208 149.854 14.6989C149.494 14.8731 149.193 15.1155 148.95 15.4261C148.708 15.733 148.553 16.0833 148.484 16.4773L147.575 22H146.234ZM152.814 25.2727C152.587 25.2727 152.386 25.2538 152.212 25.2159C152.041 25.1818 151.924 25.1477 151.859 25.1136L152.405 23.9318C152.715 24.0152 152.992 24.0398 153.234 24.0057C153.481 23.9754 153.714 23.8561 153.933 23.6477C154.157 23.4432 154.39 23.1212 154.632 22.6818L155.007 22L153.257 13.2727H154.655L155.905 20.25H155.996L159.564 13.2727H161.075L155.723 23.2614C155.473 23.7273 155.198 24.108 154.899 24.4034C154.6 24.6989 154.276 24.9167 153.928 25.0568C153.579 25.2008 153.208 25.2727 152.814 25.2727Z" fill="#C5C1C1"/>
</svg>
