<svg width="64" height="32" viewBox="0 0 64 32" fill="none" xmlns="http://www.w3.org/2000/svg">
<path d="M12.64 16.56H13.84C13.84 16.56 13.84 16.896 13.808 17.056C13.616 20.8 13.424 22.192 12.976 22.672C12.688 23.008 12.384 23.104 11.888 23.136C11.472 23.184 10.656 23.168 9.856 23.136C9.84 22.8 9.696 22.352 9.488 22.064C10.32 22.128 11.104 22.128 11.376 22.128C11.664 22.144 11.824 22.112 11.968 21.968C12.272 21.632 12.48 20.304 12.64 16.736V16.56ZM9.872 12.768H10.976C10.88 14.368 10.688 16.416 10.528 17.648H9.392C9.584 16.368 9.792 14.336 9.872 12.768ZM10.16 16.56H12.96V17.648H10.016L10.16 16.56ZM10.288 12.768H12.592V10.304H9.472V9.184H13.744V13.904H10.288V12.768ZM14 14.768H23.328V15.936H14V14.768ZM21.52 9.296L22.688 9.616C21.696 11.44 20.08 13.168 18.496 14.288C18.304 14.08 17.84 13.664 17.568 13.472C19.152 12.48 20.64 10.928 21.52 9.296ZM19.552 15.44C20.208 18.336 21.552 20.896 23.552 22.096C23.264 22.32 22.912 22.752 22.72 23.056C20.592 21.632 19.216 18.912 18.496 15.68L19.552 15.44ZM15.568 23.376L15.472 22.288L15.92 21.824L19.408 20.496C19.392 20.832 19.424 21.344 19.472 21.6C16.288 22.944 15.84 23.136 15.568 23.376ZM15.568 23.376C15.488 23.088 15.264 22.592 15.072 22.336C15.344 22.208 15.792 21.904 15.792 21.248V8.88H16.976V22.256C16.976 22.256 15.568 22.928 15.568 23.376ZM34.288 12.256H35.488V23.296H34.288V12.256ZM31.728 9.024L32.736 8.656C33.296 9.52 33.824 10.672 34.016 11.44L32.944 11.872C32.768 11.104 32.256 9.904 31.728 9.024ZM37.28 8.56L38.464 8.992C37.936 9.984 37.328 11.136 36.816 11.872L35.904 11.488C36.384 10.704 36.96 9.456 37.28 8.56ZM31.008 11.888H39.04V12.976H31.008V11.888ZM31.28 15.04H38.72V16.112H31.28V15.04ZM30.432 18.272H39.344V19.376H30.432V18.272ZM24.88 11.568H29.872V12.672H24.88V11.568ZM27.216 16.352L28.384 14.944V23.28H27.216V16.352ZM27.216 8.576H28.384V12.112H27.216V8.576ZM28.384 15.04C28.88 15.424 30.544 16.928 30.96 17.312L30.224 18.304C29.696 17.648 28.288 16.224 27.68 15.68L28.384 15.04ZM29.472 11.568H29.712L29.92 11.52L30.592 11.968C29.456 14.896 27.104 17.568 24.912 19.04C24.8 18.736 24.496 18.176 24.304 17.968C26.368 16.688 28.544 14.256 29.472 11.824V11.568ZM40.848 11.088H55.152V12.208H40.848V11.088ZM42.496 16.24H46.976V17.184H42.496V16.24ZM42.496 18.8H46.976V19.744H42.496V18.8ZM49.648 13.776H50.784V20.352H49.648V13.776ZM46.544 13.632H47.712V21.904C47.712 22.512 47.568 22.832 47.12 23.024C46.688 23.216 45.984 23.216 44.896 23.216C44.832 22.912 44.656 22.464 44.496 22.16C45.296 22.192 46.032 22.192 46.256 22.176C46.48 22.16 46.544 22.096 46.544 21.888V13.632ZM52.896 13.296H54.08V21.792C54.08 22.496 53.92 22.832 53.424 23.024C52.928 23.2 52.128 23.232 50.88 23.232C50.816 22.912 50.624 22.4 50.448 22.08C51.424 22.112 52.288 22.112 52.56 22.096C52.816 22.08 52.896 22.016 52.896 21.792V13.296ZM43.328 8.96L44.432 8.544C45.056 9.232 45.728 10.176 46.032 10.8L44.848 11.232C44.592 10.624 43.936 9.648 43.328 8.96ZM51.552 8.496L52.832 8.912C52.224 9.904 51.504 11.008 50.912 11.76L49.856 11.36C50.432 10.592 51.152 9.36 51.552 8.496ZM41.856 13.632H46.928V14.672H42.992V23.2H41.856V13.632Z" fill="#414FEC"/>
</svg>
