<svg width="584" height="560" viewBox="0 0 584 560" fill="none" xmlns="http://www.w3.org/2000/svg">
<rect width="584" height="560" rx="74" fill="black"/>
<path d="M191.06 192.455H212.197V308.023C212.197 319.955 209.384 330.608 203.759 339.983C198.191 349.301 190.322 356.659 180.151 362.057C169.981 367.398 158.049 370.068 144.356 370.068C130.663 370.068 118.731 367.398 108.56 362.057C98.3898 356.659 90.4921 349.301 84.8671 339.983C79.2989 330.608 76.5148 319.955 76.5148 308.023V192.455H97.6512V306.318C97.6512 314.841 99.5262 322.426 103.276 329.074C107.026 335.665 112.367 340.864 119.299 344.67C126.288 348.42 134.64 350.295 144.356 350.295C154.072 350.295 162.424 348.42 169.413 344.67C176.401 340.864 181.742 335.665 185.435 329.074C189.185 322.426 191.06 314.841 191.06 306.318V192.455ZM254.405 367V192.455H359.065V211.205H275.542V270.182H351.224V288.932H275.542V367H254.405ZM385.719 211.205V192.455H516.628V211.205H461.742V367H440.606V211.205H385.719Z" fill="white"/>
</svg>
