<svg width="34" height="32" viewBox="0 0 34 32" fill="none" xmlns="http://www.w3.org/2000/svg">
	<g clip-path="url(#clip0_1703_2)">
		<path d="M29.1429 0H4.22857C1.8932 0 0 1.8932 0 4.22857V27.7714C0 30.1068 1.8932 32 4.22857 32H29.1429C31.4782 32 33.3714 30.1068 33.3714 27.7714V4.22857C33.3714 1.8932 31.4782 0 29.1429 0Z" fill="black"/>
		<path d="M10.9177 10.9973H12.1255V17.6012C12.1255 18.283 11.9648 18.8918 11.6434 19.4275C11.3252 19.9599 10.8755 20.3804 10.2943 20.6889C9.71318 20.9941 9.03135 21.1466 8.24889 21.1466C7.46644 21.1466 6.78461 20.9941 6.20341 20.6889C5.62225 20.3804 5.17096 19.9599 4.84953 19.4275C4.53134 18.8918 4.37225 18.283 4.37225 17.6012V10.9973H5.58005V17.5038C5.58005 17.9908 5.68719 18.4242 5.90146 18.8041C6.11575 19.1807 6.42095 19.4778 6.81707 19.6953C7.21644 19.9096 7.69369 20.0167 8.24889 20.0167C8.80409 20.0167 9.28135 19.9096 9.68072 19.6953C10.08 19.4778 10.3852 19.1807 10.5963 18.8041C10.8106 18.4242 10.9177 17.9908 10.9177 17.5038V10.9973ZM14.5374 20.9713V10.9973H20.518V12.0687H15.7452V15.4389H20.0699V16.5103H15.7452V20.9713H14.5374ZM22.0411 12.0687V10.9973H29.5216V12.0687H26.3852V20.9713H25.1775V12.0687H22.0411Z" fill="white"/>
	</g>
	<defs>
		<clipPath id="clip0_1703_2">
			<rect width="33.3714" height="32" fill="white"/>
		</clipPath>
	</defs>
</svg>

